<svg width="24" height="24" viewBox="0 0 24 24" fill="none" xmlns="http://www.w3.org/2000/svg">
<g id="Icons / Clear">
<mask id="mask0" mask-type="alpha" maskUnits="userSpaceOnUse" x="2" y="2" width="20" height="20">
<path id="Icon" fill-rule="evenodd" clip-rule="evenodd" d="M12 2C6.486 2 2 6.486 2 12C2 17.514 6.486 22 12 22C17.514 22 22 17.514 22 12C22 6.486 17.514 2 12 2ZM15.707 8.293C15.316 7.902 14.684 7.902 14.293 8.293L12 10.586L9.707 8.293C9.316 7.902 8.684 7.902 8.293 8.293C7.902 8.684 7.902 9.316 8.293 9.707L10.586 12L8.293 14.293C7.902 14.684 7.902 15.316 8.293 15.707C8.488 15.902 8.744 16 9 16C9.256 16 9.512 15.902 9.707 15.707L12 13.414L14.293 15.707C14.488 15.902 14.744 16 15 16C15.256 16 15.512 15.902 15.707 15.707C16.098 15.316 16.098 14.684 15.707 14.293L13.414 12L15.707 9.707C16.098 9.316 16.098 8.684 15.707 8.293Z" fill="white"/>
</mask>
<g mask="url(#mask0)">
<g id="Color / Active color">
<circle id="Active color" cx="12" cy="12" r="50" fill="#6554AF"/>
</g>
</g>
</g>
</svg>
