<svg width="23" height="14" viewBox="0 0 23 14" fill="none" xmlns="http://www.w3.org/2000/svg">
<path d="M19.1054 6.86438C19.1054 6.86438 22.136 2.42026 22.4371 0.959762C22.5374 0.438197 22.3167 0.145937 21.7948 0.145937H19.1657C18.5636 0.145937 18.3428 0.417223 18.1622 0.813674C18.1622 0.813674 16.7407 3.9623 15.0112 5.94642C14.456 6.58786 14.1737 6.7809 13.8672 6.7809C13.62 6.7809 13.506 6.56669 13.506 5.98805V0.918025C13.506 0.208691 13.4257 2.30391e-07 12.8638 2.30391e-07H8.64911C8.32798 2.30391e-07 8.12727 0.194096 8.12727 0.458968C8.12727 1.12701 9.11069 1.27782 9.11069 3.08791V6.82264C9.11069 7.57377 9.07054 7.86588 8.72936 7.86588C7.82625 7.86588 5.67876 4.63194 4.4746 0.959762C4.23374 0.208691 3.97283 2.30391e-07 3.29046 2.30391e-07H0.661345C0.280009 2.30391e-07 -0.000976248 0.271146 -0.000976248 0.667554C-0.000976248 1.39781 0.821865 4.77792 4.05317 9.30555C6.22066 12.3517 9.07055 14 11.6395 14C13.205 14 13.5863 13.7289 13.5863 13.0402V10.7034C13.5863 10.1192 13.807 9.86886 14.1282 9.86886C14.4894 9.86886 15.127 9.98955 16.6168 11.5171C18.383 13.2698 18.5034 14 19.4668 14H22.417C22.718 14 22.999 13.854 22.999 13.3323C22.999 12.6438 22.136 11.4128 20.8114 9.95228C20.2695 9.20121 19.3864 8.38749 19.1054 8.01195C18.7041 7.57377 18.8245 7.32334 19.1054 6.86438Z" fill="#333333"/>
</svg>
